<?xml version="1.0" encoding="utf-8"?>
<!-- Generator: Adobe Illustrator 25.2.3, SVG Export Plug-In . SVG Version: 6.00 Build 0)  -->
<svg version="1.1" id="Capa_1" xmlns="http://www.w3.org/2000/svg" xmlns:xlink="http://www.w3.org/1999/xlink" x="0px" y="0px"
	 viewBox="0 0 512 512" style="enable-background:new 0 0 512 512;" xml:space="preserve">
<style type="text/css">
	.st0{fill:#D3E4F7;}
</style>
<g id="XMLID_83_">
	<path id="XMLID_85_" class="st0" d="M493.1,428H492V228.9l17-17c3.9-3.9,3.9-10.2,0-14.1l-42.4-42.4c-3.9-3.9-10.2-3.9-14.1,0
		l-8.5,8.5V10c0-5.5-4.5-10-10-10H301c-5.5,0-10,4.5-10,10s4.5,10,10,10h123v163.8L351.8,256H126.9c-5.5,0-10,4.5-10,10
		s4.5,10,10,10h204.9l-44,44H126.9c-5.5,0-10,4.5-10,10s4.5,10,10,10h140.9l-15.2,15.2c0,0,0,0,0,0c-0.9,0.9-1.6,1.9-2.1,3
		L219.8,428H88V20h123c5.5,0,10-4.5,10-10s-4.5-10-10-10H78c-5.5,0-10,4.5-10,10v154.1c-26.6,1.1-48,23.1-48,49.9v126.8V428h-1.1
		C8.5,428,0,436.5,0,446.9C0,482.8,29.2,512,65.1,512h381.8c35.9,0,65.1-29.2,65.1-65.1C512,436.5,503.5,428,493.1,428L493.1,428z
		 M459.5,176.5l28.3,28.3L302.1,390.6l-28.3-28.3L459.5,176.5z M472,248.9V428h-28V276.9L472,248.9z M424,296.9V428H273.9l32.2-14.1
		c1.1-0.5,2.1-1.2,3-2.1L424,296.9z M262.9,379.7l21.7,21.7l-38.8,17.1L262.9,379.7z M40,340.8V214c0-15.9,12.4-28.9,28-29.9V428H40
		V340.8z M446.9,492H65.1c-24.5,0-44.5-19.6-45.1-44h472C491.4,472.4,471.4,492,446.9,492L446.9,492z"/>
	<path id="XMLID_393_" class="st0" d="M126.9,192c-5.5,0-10,4.5-10,10s4.5,10,10,10h83.4c5.5,0,10-4.5,10-10s-4.5-10-10-10H126.9z"
		/>
	<path id="XMLID_394_" class="st0" d="M287,138c0-5.5-4.5-10-10-10H126.9c-5.5,0-10,4.5-10,10s4.5,10,10,10H277
		C282.5,148,287,143.5,287,138z"/>
	<path id="XMLID_395_" class="st0" d="M395.1,138c0-5.5-4.5-10-10-10H333c-5.5,0-10,4.5-10,10s4.5,10,10,10h52.1
		C390.6,148,395.1,143.5,395.1,138z"/>
	<path id="XMLID_396_" class="st0" d="M126.9,84H165c5.5,0,10-4.5,10-10s-4.5-10-10-10h-38.1c-5.5,0-10,4.5-10,10S121.4,84,126.9,84
		z"/>
	<path id="XMLID_751_" class="st0" d="M211,74c0,5.5,4.5,10,10,10h164.1c5.5,0,10-4.5,10-10s-4.5-10-10-10H221
		C215.5,64,211,68.5,211,74L211,74z"/>
	<path id="XMLID_752_" class="st0" d="M256,20c2.6,0,5.2-1.1,7.1-2.9s2.9-4.4,2.9-7.1s-1.1-5.2-2.9-7.1S258.6,0,256,0
		s-5.2,1.1-7.1,2.9c-1.9,1.9-2.9,4.4-2.9,7.1s1.1,5.2,2.9,7.1S253.4,20,256,20z"/>
	<path id="XMLID_765_" class="st0" d="M266.3,212H359c5.5,0,10-4.5,10-10s-4.5-10-10-10h-92.8c-5.5,0-10,4.5-10,10
		S260.7,212,266.3,212z"/>
</g>
</svg>
