<?xml version="1.0" encoding="utf-8"?>
<!-- Generator: Adobe Illustrator 25.2.3, SVG Export Plug-In . SVG Version: 6.00 Build 0)  -->
<svg version="1.1" id="Capa_1" xmlns="http://www.w3.org/2000/svg" xmlns:xlink="http://www.w3.org/1999/xlink" x="0px" y="0px"
	 viewBox="0 0 490 490" style="enable-background:new 0 0 490 490;" xml:space="preserve">
<style type="text/css">
	.st0{fill:#D3E4F7;}
</style>
<g>
	<g>
		<path class="st0" d="M465,334.6H25c-13.8,0-25-11.2-25-25V73c0-13.8,11.2-25,25-25h440c13.8,0,25,11.2,25,25v236.6
			C490,323.3,478.8,334.6,465,334.6z M25,68.2c-2.7,0-4.8,2.2-4.8,4.8v236.6c0,2.7,2.2,4.8,4.8,4.8h440c2.7,0,4.8-2.2,4.8-4.8V73
			c0-2.7-2.2-4.8-4.8-4.8H25z"/>
	</g>
	<g>
		<path class="st0" d="M192.7,268.1c-3.3-1.8-5.5-5.2-5.5-9V123.5c0-3.8,2.1-7.2,5.5-9c3.4-1.7,7.4-1.4,10.5,0.7l95.4,67.8
			c2.7,1.9,4.2,5,4.2,8.2c0,3.3-1.6,6.3-4.2,8.2c0,0-71.5,50.9-95.4,67.8C201.4,268.6,197.7,270.8,192.7,268.1z M207.4,143v96.5
			l67.8-48.2L207.4,143z"/>
	</g>
	<path class="st0" d="M479.9,391.9H286.8c-4.5-17.2-20.1-29.9-38.7-29.9c-18.6,0-34.2,12.7-38.7,29.9H10.1C4.5,391.9,0,396.5,0,402
		c0,5.6,4.5,10.1,10.1,10.1h199.3c4.5,17.2,20.1,29.9,38.7,29.9c18.6,0,34.2-12.7,38.7-29.9h193.1c5.6,0,10.1-4.5,10.1-10.1
		C490,396.5,485.5,391.9,479.9,391.9z M248.1,421.8c-10.9,0-19.8-8.9-19.8-19.8c0-10.9,8.9-19.8,19.8-19.8
		c10.9,0,19.8,8.9,19.8,19.8C267.9,412.9,259,421.8,248.1,421.8z"/>
</g>
</svg>
