<?xml version="1.0" encoding="utf-8"?>
<!-- Generator: Adobe Illustrator 25.2.3, SVG Export Plug-In . SVG Version: 6.00 Build 0)  -->
<svg version="1.1" id="Icons" xmlns="http://www.w3.org/2000/svg" xmlns:xlink="http://www.w3.org/1999/xlink" x="0px" y="0px"
	 viewBox="0 0 512 512" style="enable-background:new 0 0 512 512;" xml:space="preserve">
<style type="text/css">
	.st0{fill:#D3E4F7;}
</style>
<path class="st0" d="M392.2,128.2c-3.8,0-6.9-3.1-6.9-6.9c0-1.4,0.5-2.9,1.3-4c4.2-5.9,6.5-12.9,6.4-20.2
	c0-19.4-15.8-35.2-35.3-35.2c-15.2,0-28.7,9.8-33.4,24.3c-1.3,3.6-5.2,5.5-8.8,4.2c-3.5-1.2-5.4-5-4.3-8.5
	c8.4-25.7,36.1-39.8,61.9-31.4c20.1,6.6,33.8,25.4,33.8,46.6c0,10.1-3.1,20-9,28.2C396.6,127.1,394.4,128.2,392.2,128.2z"/>
<path class="st0" d="M446.1,208.2c-3.8,0-6.9-3.1-6.9-6.9c0-0.9,0.2-1.8,0.5-2.6c2.4-5.9,3.6-12.3,3.6-18.7
	c0.3-28.5-22.5-51.9-51.1-52.3c-28.5-0.3-51.9,22.5-52.3,51.1c0,0.4,0,0.8,0,1.2c0,3.8-3.1,6.9-6.9,6.9s-6.9-3.1-6.9-6.9
	c-0.4-36.2,28.7-65.8,64.8-66.2c36.2-0.4,65.8,28.7,66.2,64.8c0,0.4,0,0.9,0,1.3c0,8.2-1.5,16.4-4.6,24
	C451.5,206.5,448.9,208.2,446.1,208.2z"/>
<path class="st0" d="M410.7,313.3c-2.2,0-4.5-0.1-6.7-0.3c-3.8-0.4-6.6-3.8-6.2-7.6c0.4-3.8,3.8-6.6,7.6-6.2l0,0
	c1.7,0.2,3.5,0.3,5.3,0.3c28.5,0,51.6-23.1,51.7-51.6c0-16.2-7.5-31.4-20.4-41.2c-3.1-2.3-3.7-6.6-1.4-9.7c2.3-3.1,6.6-3.7,9.7-1.4
	c28.8,21.9,34.4,63,12.5,91.8C450.4,303.8,431.1,313.3,410.7,313.3L410.7,313.3z"/>
<path class="st0" d="M385.3,458.4c-3.8,0-6.9-3.1-6.9-6.9c0-3.4,2.5-6.3,5.8-6.8c24.9-4,43.2-25.6,43.1-50.9c0-5.1-0.7-10.1-2.2-15
	c-1.1-3.7,1-7.5,4.7-8.6c3.7-1.1,7.5,1,8.6,4.7c1.8,6.1,2.8,12.5,2.8,18.9c0.1,32.1-23.1,59.4-54.7,64.5
	C386,458.4,385.7,458.4,385.3,458.4z"/>
<path class="st0" d="M431.7,383.8c-3.8,0-6.9-3.1-6.9-6.9c0-2.7,1.6-5.2,4.1-6.3c18.4-8.3,30.3-26.7,30.3-46.9
	c0-11.5-3.8-22.7-11-31.8c-2.3-3.1-1.7-7.4,1.4-9.7c3-2.2,7.2-1.7,9.5,1.1c22.3,28.4,17.3,69.4-11,91.7c-4.1,3.3-8.7,6-13.5,8.2
	C433.7,383.6,432.7,383.8,431.7,383.8z"/>
<path class="st0" d="M323.7,498.2c-41.2,0-74.5-33.4-74.6-74.6V57.7c-0.6-12.5,4.1-24.7,13.1-33.5c9.9-8.8,23.4-12.3,36.3-9.4
	c30.6,7.3,59.4,21,84.3,40.2c3,2.4,3.5,6.8,1.1,9.7c-2.4,3-6.8,3.5-9.7,1.1c-23.3-17.8-49.9-30.5-78.4-37.4
	c-8.5-2-17.5,0.2-24.1,5.9c-6.1,6.2-9.2,14.7-8.7,23.4v365.9c0,33.6,27.2,60.8,60.8,60.7c23.8,0,45.5-14,55.3-35.7
	c1.6-3.5,5.7-5,9.2-3.4c3.5,1.6,5,5.7,3.4,9.2C379.5,481,352.9,498.1,323.7,498.2z"/>
<path class="st0" d="M119.8,128.2c-2.2,0-4.3-1.1-5.6-2.9c-5.9-8.2-9-18.1-9-28.2c0-27.1,22-49,49.1-49c21.2,0,40,13.6,46.6,33.8
	c1.3,3.6-0.6,7.6-4.2,8.8c-3.6,1.3-7.6-0.6-8.8-4.2c0-0.1-0.1-0.2-0.1-0.3c-6-18.5-25.9-28.6-44.4-22.6
	C128.8,68.3,119,81.8,119,97.1c0,7.2,2.2,14.3,6.4,20.2c2.2,3.1,1.5,7.4-1.6,9.7C122.7,127.7,121.3,128.2,119.8,128.2L119.8,128.2z"
	/>
<path class="st0" d="M65.9,208.2c-2.8,0-5.3-1.7-6.4-4.3c-3.1-7.6-4.7-15.8-4.6-24c-0.4-36.2,28.7-65.8,64.8-66.2
	s65.8,28.7,66.2,64.8c0,0.4,0,0.9,0,1.3c0,3.8-3.1,6.9-6.9,6.9s-6.9-3.1-6.9-6.9c0.3-28.5-22.5-51.9-51.1-52.3
	c-28.5-0.3-51.9,22.5-52.3,51.1c0,0.4,0,0.8,0,1.2c0,6.4,1.2,12.8,3.6,18.8c1.4,3.5-0.2,7.5-3.8,9C67.7,208,66.8,208.2,65.9,208.2z"
	/>
<path class="st0" d="M101.3,313.3c-36.1,0-65.5-29.2-65.5-65.4c0-20.5,9.6-39.9,25.9-52.3c3.1-2.3,7.4-1.7,9.7,1.4
	c2.3,3.1,1.7,7.4-1.4,9.7c-22.7,17.3-27,49.7-9.7,72.4c9.8,12.8,24.9,20.3,41,20.3c1.8,0,3.5-0.1,5.3-0.3c3.8-0.4,7.2,2.4,7.6,6.2
	c0.4,3.8-2.4,7.2-6.2,7.6C105.8,313.2,103.5,313.3,101.3,313.3z"/>
<path class="st0" d="M126.7,458.4c-0.4,0-0.8,0-1.1-0.1c-31.6-5.1-54.9-32.5-54.7-64.5c0-6.4,0.9-12.8,2.8-18.9
	c1.1-3.7,4.9-5.8,8.6-4.7s5.8,4.9,4.7,8.6c-1.4,4.9-2.2,9.9-2.2,15c-0.1,25.3,18.2,46.8,43.1,50.9c3.8,0.6,6.3,4.2,5.7,7.9
	C133,456,130.1,458.4,126.7,458.4L126.7,458.4z"/>
<path class="st0" d="M80.3,383.8c-1,0-1.9-0.2-2.8-0.6c-32.9-14.8-47.5-53.5-32.7-86.4c2.2-4.8,4.9-9.3,8.2-13.5
	c2.3-3.1,6.6-3.7,9.7-1.4c3.1,2.3,3.7,6.6,1.4,9.7c-0.1,0.1-0.1,0.2-0.2,0.2c-7.1,9-11,20.2-11,31.8c0,20.2,11.9,38.6,30.3,46.9
	c3.5,1.6,5,5.7,3.5,9.1C85.4,382.2,83,383.8,80.3,383.8L80.3,383.8z"/>
<path class="st0" d="M188.3,498.2c-29.3-0.1-55.8-17.2-67.9-43.8c-1.6-3.5,0-7.6,3.4-9.2c3.5-1.6,7.6,0,9.2,3.4
	c13.9,30.6,49.9,44.1,80.5,30.2c21.7-9.9,35.6-31.4,35.6-55.2V57.7c0.5-8.7-2.6-17.2-8.7-23.4c-6.6-5.8-15.6-8-24.1-5.9
	c-28.4,6.9-55.1,19.6-78.4,37.4c-3.1,2.2-7.4,1.5-9.7-1.6c-2-2.9-1.6-6.8,1-9.2c24.9-19.2,53.7-32.9,84.3-40.2
	c12.9-2.9,26.5,0.6,36.3,9.4c8.9,8.8,13.7,21,13.1,33.5v365.9C262.9,464.7,229.5,498.1,188.3,498.2z"/>
<path class="st0" d="M256,158.9c-0.6,0-1.3-0.1-1.9-0.3c-3.7-1-5.8-4.9-4.8-8.5c0,0,0,0,0,0c3.6-12.9,17.5-36.7,43.7-34.1
	c3.8,0.4,6.6,3.8,6.2,7.6c-0.4,3.8-3.8,6.6-7.6,6.2c-21.3-2.1-29,23.8-29.1,24C261.8,156.8,259.1,158.9,256,158.9z"/>
<path class="st0" d="M256,193.2c-3.1,0-5.8-2.1-6.6-5l0,0c-0.3-1.1-7.9-26.2-29.1-24.1c-3.8,0.4-7.2-2.4-7.6-6.2
	c-0.4-3.8,2.4-7.2,6.2-7.6c26.3-2.6,40.1,21.1,43.7,34.1c1,3.7-1.1,7.5-4.8,8.5c0,0,0,0,0,0C257.2,193.1,256.6,193.2,256,193.2z"/>
<path class="st0" d="M350.8,240c-19.4,0-37.8-8.6-50.2-23.5c-2.5-2.9-2.2-7.2,0.7-9.8c2.9-2.5,7.2-2.2,9.8,0.7
	c0.1,0.1,0.1,0.2,0.2,0.3c18.2,21.8,50.6,24.8,72.5,6.6c11.7-9.8,18.5-24.3,18.5-39.6c0-1.3,0-2.6-0.1-3.9c-0.4-3.8,2.4-7.2,6.2-7.5
	c3.8-0.4,7.2,2.4,7.5,6.2c0,0.1,0,0.2,0,0.2c0.1,1.6,0.2,3.3,0.2,5C416.1,210.8,386.8,240,350.8,240z"/>
<path class="st0" d="M391.7,280.2h-0.1c-33.7-0.7-49.5-30.3-53.1-45.8c-0.8-3.7,1.5-7.4,5.2-8.3c3.7-0.8,7.3,1.4,8.2,5.1l0,0
	c0.3,1.4,8.7,34.6,39.9,35.2c3.8,0,6.9,3.2,6.9,7C398.6,277.2,395.5,280.3,391.7,280.2L391.7,280.2z"/>
<path class="st0" d="M349.5,373.1h-0.6c-3.8-0.3-6.6-3.7-6.3-7.5c2-14.6-2-29.3-11.2-40.8c-10.9-11.3-25.5-18.4-41.2-20
	c-3.8-0.3-6.7-3.6-6.4-7.4c0.3-3.8,3.6-6.7,7.4-6.4c19.3,1.9,37.4,10.7,50.7,24.8c11.6,14.3,16.8,32.7,14.5,50.9
	C356.1,370.3,353.1,373.1,349.5,373.1z"/>
<path class="st0" d="M305.4,433H305c-3.8-0.2-6.8-3.4-6.6-7.2c0,0,0,0,0,0c1.1-24.4,17-69.8,68.9-68c3.8,0.1,6.8,3.4,6.7,7.2
	c-0.1,3.8-3.4,6.8-7.2,6.7l0,0c-51.2-1.8-54.5,52.5-54.6,54.8C312.1,430.1,309,433,305.4,433z"/>
<path class="st0" d="M178.1,248.3c-36,0-65.3-29.2-65.3-65.3c0-1.7,0.1-3.3,0.2-5c0.2-3.8,3.5-6.7,7.3-6.5c3.8,0.2,6.7,3.5,6.5,7.3
	c0,0.1,0,0.2,0,0.2c-0.1,1.3-0.1,2.6-0.1,3.9c0,28.4,23,51.5,51.5,51.5c15.3,0,29.8-6.8,39.5-18.5c2.4-2.9,6.8-3.3,9.7-0.9
	c2.9,2.4,3.3,6.8,0.9,9.7C215.9,239.7,197.5,248.3,178.1,248.3z"/>
<path class="st0" d="M137.2,288.5c-3.8,0-6.9-3-7-6.9c0-3.8,3-6.9,6.9-7c31.2-0.6,39.6-33.8,39.9-35.2c0.9-3.7,4.7-6,8.4-5
	c3.6,0.9,5.9,4.6,5.1,8.2c-3.6,15.5-19.5,45.1-53.1,45.8H137.2z"/>
<path class="st0" d="M138.6,390.6c-3.6,0-6.6-2.7-6.9-6.3c-2.4-18.3,2.8-36.7,14.5-51c13.3-14.1,31.4-22.9,50.7-24.8
	c3.8-0.2,7.1,2.6,7.4,6.4c0.3,3.8-2.6,7.1-6.4,7.4c0,0,0,0,0,0c-15.7,1.6-30.3,8.7-41.3,20.1c-9.1,11.5-13.1,26.2-11.1,40.8
	c0.3,3.8-2.5,7.1-6.3,7.5L138.6,390.6z"/>
<path class="st0" d="M182.7,450.5c-3.7,0-6.7-2.9-6.9-6.6l0,0c-0.1-2.3-3.5-56.8-54.6-54.8c-3.8,0.1-7-2.8-7.2-6.7
	c-0.1-3.8,2.8-7,6.7-7.2c51.8-1.9,67.8,43.6,68.9,68c0.2,3.8-2.8,7.1-6.6,7.2c0,0,0,0,0,0L182.7,450.5z"/>
<path class="st0" d="M256,430.5L256,430.5c-3.9,0-6.9-3.1-6.9-7c0,0,0,0,0,0c0.9-28-18.5-52.6-45.9-58.3c-3.8-0.7-6.2-4.4-5.5-8.1
	c0.7-3.8,4.4-6.2,8.1-5.5c0.6,0.1,57.5,11.8,57.1,72C262.9,427.4,259.8,430.5,256,430.5z"/>
</svg>
