<?xml version="1.0" encoding="utf-8"?>
<!-- Generator: Adobe Illustrator 25.2.3, SVG Export Plug-In . SVG Version: 6.00 Build 0)  -->
<svg version="1.1" id="Layer_1" xmlns="http://www.w3.org/2000/svg" xmlns:xlink="http://www.w3.org/1999/xlink" x="0px" y="0px"
	 viewBox="0 0 512 512" style="enable-background:new 0 0 512 512;" xml:space="preserve">
<style type="text/css">
	.st0{fill:#D3E4F7;}
</style>
<g>
	<path class="st0" d="M428.5,416.5c-8.2,4.3-17.2,6.9-26.7,7.9c-2,0.2-3.9,1.2-5.2,2.9s-1.8,3.7-1.5,5.7c0.4,2.8,0.6,5.2,0.6,7.3
		c0,31.2-29.7,56.6-66.1,56.6c-26.6,0-50.5-13.5-60.9-34.5c-1.2-2.4-3-4.3-5.2-5.6v-94.8c0.6,0,1.1,0,1.7-0.1
		c14.7-0.5,32.9-1.2,43,8.6c5.2,5,8.3,12.9,9.1,23.4c-8.6,3.2-14.8,11.4-14.8,21.1c0,12.4,10.1,22.5,22.5,22.5s22.5-10.1,22.5-22.5
		c0-9.9-6.4-18.2-15.2-21.3c-1-14.8-5.6-26.2-13.7-34.1c-14.7-14.2-37.4-13.4-54-12.8c-0.4,0-0.8,0-1.2,0v-47.1
		c76.5,0.2,115.1,3.3,118.5,44.5c-8.6,3.2-14.8,11.4-14.8,21.1c0,12.4,10.1,22.5,22.5,22.5s22.5-10.1,22.5-22.5
		c0-9.9-6.4-18.3-15.2-21.3c-1.8-26.6-15.8-43.6-42.4-51.8c-23.1-7.1-54.6-7.6-91.1-7.6v-46.9c36.5,0,68-0.5,91.1-7.6
		c26.6-8.2,40.5-25.2,42.4-51.8c8.9-3,15.2-11.4,15.2-21.3c0-12.4-10.1-22.5-22.5-22.5s-22.5,10.1-22.5,22.5c0,9.7,6.2,18,14.8,21.1
		c-3.3,41.2-42,44.4-118.5,44.5v-45.7c0.4,0,0.8,0,1.2,0c3.5,0.1,7.3,0.3,11.2,0.3c14.6,0,31.2-1.9,42.8-13.1
		c8.1-7.8,12.7-19.3,13.7-34.1c8.8-3,15.2-11.4,15.2-21.3c0-12.4-10.1-22.5-22.5-22.5s-22.5,10.1-22.5,22.5c0,9.7,6.2,18,14.8,21.1
		c-0.8,10.5-3.9,18.4-9.1,23.4c-10.2,9.8-28.4,9.1-43,8.6c-0.6,0-1.2,0-1.7-0.1v-32.5c0-4.1-3.4-7.5-7.5-7.5s-7.5,3.4-7.5,7.5v327
		c-2.2,1.3-4.1,3.3-5.2,5.6c-10.4,21-34.3,34.5-60.9,34.5c-36.5,0-66.1-25.4-66.1-56.6c0-2.2,0.2-4.5,0.6-7.3
		c0-0.1,1.8-12.6,10.4-20.8c3-2.9,3.1-7.6,0.2-10.6c-2.9-3-7.6-3.1-10.6-0.2c-7.4,7.1-11.2,15.9-13.1,22.1
		c-17.5-3.3-33-12.7-42.4-26c-2.4-3.4-7.1-4.2-10.5-1.8c-3.4,2.4-4.2,7.1-1.8,10.5c11.9,16.7,30.6,28.2,52.1,32.1c0,0.7,0,1.4,0,2.1
		c0,39.5,36.4,71.6,81.1,71.6c31.7,0,60.4-16.2,73.6-41.5c13.3,25.3,42,41.5,73.6,41.5c44.7,0,81.1-32.1,81.1-71.6
		c0-0.7,0-1.4,0-2.1c8.7-1.6,17-4.4,24.7-8.5c3.7-1.9,5.1-6.5,3.2-10.1C436.7,416,432.2,414.6,428.5,416.5L428.5,416.5z
		 M325.1,407.7c4.1,0,7.5,3.4,7.5,7.5c0,4.1-3.4,7.5-7.5,7.5s-7.5-3.4-7.5-7.5C317.6,411.1,321,407.7,325.1,407.7z M389.7,358.1
		c4.1,0,7.5,3.4,7.5,7.5c0,4.1-3.4,7.5-7.5,7.5s-7.5-3.4-7.5-7.5C382.2,361.4,385.6,358.1,389.7,358.1z M389.7,149.9
		c4.1,0,7.5,3.4,7.5,7.5c0,4.1-3.4,7.5-7.5,7.5s-7.5-3.4-7.5-7.5C382.2,153.3,385.6,149.9,389.7,149.9z M325.1,101.8
		c4.1,0,7.5,3.4,7.5,7.5c0,4.1-3.4,7.5-7.5,7.5s-7.5-3.4-7.5-7.5C317.6,105.1,321,101.8,325.1,101.8z"/>
	<path class="st0" d="M51.8,368.2c0-13.6,5.7-27.1,15.6-37.1c1.9-1.9,2.6-4.7,1.9-7.4c-0.8-2.6-2.9-4.6-5.5-5.2
		C35.1,311.9,15,289.5,15,264c0-15.8,7.4-30.9,20.7-42.3c1.6-1.4,2.5-3.4,2.6-5.5c0.1-2.1-0.8-4.1-2.3-5.6
		c-7.7-7.4-11.9-16.9-11.9-26.7c0-22,20.3-39.8,46.2-40.5c0.1,0,11.6,0.2,19.6,7.3c1.4,1.3,3.2,1.9,5,1.9c2.1,0,4.1-0.9,5.6-2.5
		c2.7-3.1,2.5-7.8-0.6-10.6c-8.6-7.6-19.4-10-25.3-10.7c-2.9-5.3-4.4-11.1-4.4-17c0-12.4,6.6-24,18-31.7c3.4-2.3,4.3-7,2-10.4
		c-2.3-3.4-7-4.3-10.4-2c-15.6,10.6-24.5,26.7-24.5,44.1c0,6.1,1.1,12.1,3.3,17.8c-28.4,5.4-49.4,27.6-49.4,54.3
		c0,11.4,3.9,22.4,11.2,31.7C7.2,229.2,0,246.1,0,264c0,28.9,19.7,54.6,49.2,65.7c-7.9,11.4-12.3,24.9-12.3,38.5
		c0,4.1,3.4,7.5,7.5,7.5S51.8,372.4,51.8,368.2z"/>
	<path class="st0" d="M512,264c0-17.9-7.2-34.8-20.4-48.5c7.3-9.3,11.2-20.3,11.2-31.7c0-26.7-20.9-48.9-49.4-54.3
		c2.2-5.7,3.3-11.8,3.3-17.8c0-30.7-28.1-55.6-62.7-55.6c-0.7,0-1.4,0-2.2,0c-1.9-14.1-9.3-27.3-21.2-37.7
		C357.2,6.8,339.7,0.2,321.4,0c-0.3,0-0.7,0-1,0c-27.3,0-52.3,13.7-64.4,35.3C243.9,13.7,218.8,0,191.6,0c-0.3,0-0.7,0-1,0
		c-18.3,0.2-35.8,6.8-49.2,18.4c-11.9,10.4-19.3,23.6-21.2,37.7c-0.8,0-1.5,0-2.2,0c-4.1,0-7.5,3.4-7.5,7.5s3.4,7.5,7.5,7.5
		c2.3,0,5.5,0.2,8.3,0.6c2.3,0.3,4.5-0.4,6.1-2c1.6-1.6,2.5-3.8,2.3-6l0-0.5c0-0.1,0-0.3,0-0.3c0.5-25.6,26.1-47.5,56.1-47.8
		c22.6-0.2,43.3,10.9,52.7,28.5c1.2,2.2,3,4,5.1,5.3v46.4c0,4.1,3.4,7.5,7.5,7.5c4.1,0,7.5-3.4,7.5-7.5V48.8
		c2.1-1.3,3.9-3.1,5.1-5.3c9.3-17.4,29.6-28.5,51.9-28.5c0.3,0,0.5,0,0.8,0c29.9,0.4,55.6,22.3,56.1,47.8c-0.1-0.1-0.2,15-8.3,24.7
		c-2.7,3.2-2.2,7.9,0.9,10.6c1.4,1.2,3.1,1.7,4.8,1.7c2.1,0,4.3-0.9,5.8-2.7c7-8.3,9.8-18.7,11-25.9c0.9,0,1.8-0.1,2.5-0.1
		c26.3,0,47.7,18.2,47.7,40.6c0,6.9-2.2,13.8-6.2,20c-1.5,2.3-1.7,5.2-0.4,7.6c1.3,2.4,3.7,4,6.5,4.1c25.9,0.7,46.2,18.5,46.2,40.5
		c0,9.8-4.2,19.3-11.9,26.7c-0.1,0.1-8.1,8.1-18.6,8.9c-4.1,0.3-7.2,3.9-6.9,8.1c0.3,3.9,3.6,6.9,7.5,6.9c0.2,0,0.4,0,0.6,0
		c9.5-0.8,17.3-5,22.2-8.5c10.5,10.8,16.2,24.1,16.2,38.1c0,25.4-20.1,47.9-48.8,54.5c-2.6,0.6-4.8,2.6-5.5,5.2
		c-0.8,2.6,0,5.4,1.9,7.4c9.9,10,15.6,23.5,15.6,37.1c0,9.5-2.8,18.9-8.1,27.1c-2.2,3.5-1.2,8.1,2.3,10.4c1.3,0.8,2.7,1.2,4,1.2
		c2.5,0,4.9-1.2,6.3-3.5c6.9-10.7,10.5-22.9,10.5-35.2c0-13.6-4.4-27.1-12.3-38.5C492.3,318.6,512,292.9,512,264L512,264z"/>
	<path class="st0" d="M84.7,256.6c-0.2,4.1,2.9,7.7,7.1,7.9c0.1,0,0.3,0,0.4,0c3.9,0,7.3-3.1,7.5-7.1c0-0.4,2.6-37.8,40.4-47
		c4-1,6.5-5,5.5-9.1s-5-6.5-9.1-5.5c-25.4,6.2-38.1,22.3-44.4,34.8C85.5,244.1,84.7,256.1,84.7,256.6L84.7,256.6z"/>
	<path class="st0" d="M200.9,83.1c-4.1-0.4-7.8,2.6-8.2,6.8c-2.2,23.5-26.6,32.6-27.7,32.9c-3.9,1.4-5.9,5.6-4.6,9.6
		c1.1,3.1,4,5,7.1,5c0.8,0,1.7-0.1,2.5-0.4c1.4-0.5,34.5-12.5,37.6-45.7C208,87.2,205,83.5,200.9,83.1z"/>
	<path class="st0" d="M194.8,417.3c1,0.5,2.1,0.7,3.2,0.7c2.8,0,5.5-1.6,6.8-4.3c1.8-3.7,0.2-8.2-3.6-10
		c-28.9-13.7-26.4-46.4-26.3-47.8c0.4-4.1-2.7-7.8-6.8-8.1c-4.1-0.4-7.8,2.6-8.2,6.8C159.9,356.4,156.4,399,194.8,417.3L194.8,417.3
		z"/>
	<path class="st0" d="M177,278.1c-3.7,1.8-5.3,6.3-3.6,10c1.3,2.7,4,4.3,6.8,4.3c1.1,0,2.2-0.2,3.2-0.7c24.3-11.6,22.1-38.4,22-39.5
		c-0.4-4.1-4.1-7.1-8.2-6.8c-4.1,0.4-7.2,4-6.8,8.2C190.5,253.7,192,271,177,278.1z"/>
	<path class="st0" d="M355.3,262.2c0,4.1,3.4,7.5,7.5,7.5s7.5-3.4,7.5-7.5s-3.4-7.5-7.5-7.5S355.3,258.1,355.3,262.2z"/>
	<path class="st0" d="M413.8,269.7c4.1,0,7.5-3.4,7.5-7.5s-3.4-7.5-7.5-7.5s-7.5,3.4-7.5,7.5S409.7,269.7,413.8,269.7z"/>
	<path class="st0" d="M317.6,468.7c0,4.1,3.4,7.5,7.5,7.5s7.5-3.4,7.5-7.5s-3.4-7.5-7.5-7.5S317.6,464.6,317.6,468.7z"/>
	<path class="st0" d="M332.6,55.7c0-4.1-3.4-7.5-7.5-7.5s-7.5,3.4-7.5,7.5s3.4,7.5,7.5,7.5S332.6,59.9,332.6,55.7z"/>
</g>
</svg>
