<?xml version="1.0" encoding="utf-8"?>
<!-- Generator: Adobe Illustrator 25.2.3, SVG Export Plug-In . SVG Version: 6.00 Build 0)  -->
<svg version="1.1" id="Capa_1" xmlns="http://www.w3.org/2000/svg" xmlns:xlink="http://www.w3.org/1999/xlink" x="0px" y="0px"
	 viewBox="0 0 512 512" style="enable-background:new 0 0 512 512;" xml:space="preserve">
<style type="text/css">
	.st0{fill:#D3E4F7;}
</style>
<g>
	<g>
		<path class="st0" d="M296,512h-80c-24.8,0-45-20.2-45-45c0-23.1,17.5-42.2,40-44.7v-70.9C115.4,343.7,40,263.5,40,166V89.7
			C17.5,87.2,0,68.1,0,45C0,20.2,20.2,0,45,0h40c24.8,0,45,20.2,45,45v121c0,47.8,35.2,87.6,81,94.8V89.7c-22.5-2.5-40-21.6-40-44.7
			c0-24.8,20.2-45,45-45h80c24.8,0,45,20.2,45,45c0,23.1-17.5,42.2-40,44.7v171.1c45.8-7.2,81-47,81-94.8V45c0-24.8,20.2-45,45-45
			h40c24.8,0,45,20.2,45,45c0,23.1-17.5,42.2-40,44.7V166c0,97.5-75.4,177.7-171,185.4v70.9c22.5,2.5,40,21.6,40,44.7
			C341,491.8,320.8,512,296,512z M216,452c-8.3,0-15,6.7-15,15s6.7,15,15,15h80c8.3,0,15-6.7,15-15s-6.7-15-15-15h-10
			c-8.3,0-15-6.7-15-15V337c0-8.3,6.7-15,15-15c86,0,156-70,156-156V75c0-8.3,6.7-15,15-15h10c8.3,0,15-6.7,15-15s-6.7-15-15-15h-40
			c-8.3,0-15,6.7-15,15v121c0,69.5-56.5,126-126,126c-8.3,0-15-6.7-15-15V75c0-8.3,6.7-15,15-15h10c8.3,0,15-6.7,15-15
			s-6.7-15-15-15h-80c-8.3,0-15,6.7-15,15s6.7,15,15,15h10c8.3,0,15,6.7,15,15v202c0,8.3-6.7,15-15,15c-69.5,0-126-56.5-126-126V45
			c0-8.3-6.7-15-15-15H45c-8.3,0-15,6.7-15,15s6.7,15,15,15h10c8.3,0,15,6.7,15,15v91c0,86,70,156,156,156c8.3,0,15,6.7,15,15v100
			c0,8.3-6.7,15-15,15H216z"/>
	</g>
</g>
</svg>
