<?xml version="1.0" encoding="utf-8"?>
<!-- Generator: Adobe Illustrator 25.2.3, SVG Export Plug-In . SVG Version: 6.00 Build 0)  -->
<svg version="1.1" id="Capa_1" xmlns="http://www.w3.org/2000/svg" xmlns:xlink="http://www.w3.org/1999/xlink" x="0px" y="0px"
	 viewBox="0 0 512 512" style="enable-background:new 0 0 512 512;" xml:space="preserve">
<style type="text/css">
	.st0{fill:#D3E4F7;}
</style>
<g>
	<path class="st0" d="M324.8,0H121v90h240c66.7,0,121,54.3,121,121c0,55-38.9,102.9-91.3,116.3c0.2-3.7,0.3-7.5,0.3-11.3
		c0-108.1-87.5-196-195-196C88.2,120,0,208.2,0,316c0,107.8,88.2,196,196,196c70.8,0,132.9-38.1,167-94.9
		c86.3-18.1,149-94.3,149-182.3c0-15.1,0-32.4,0-47.5C512,84.3,427.7,0,324.8,0L324.8,0z M301,60h-60V30h60V60z M151,30h60v30h-60
		V30z M361,60h-30V30.1c45.4,1.8,85.9,22.9,113.5,55.3C419.9,68.9,391.1,60,361,60z M196,482c-91.5,0-166-74.5-166-166
		s74.5-166,166-166c91,0,165,74.5,165,166S287,482,196,482z M380,380.9c2.5-7.2,4.6-14.5,6.3-22.1c20.4-3.5,39.9-11.1,57.1-22.3
		C426.4,356.1,404.7,371.5,380,380.9L380,380.9z"/>
	<path class="st0" d="M196,271c24.8,0,45-20.2,45-45s-20.2-45-45-45s-45,20.2-45,45S171.2,271,196,271z M196,211c8.3,0,15,6.7,15,15
		s-6.7,15-15,15s-15-6.7-15-15S187.7,211,196,211z"/>
	<path class="st0" d="M196,361c-24.8,0-45,20.2-45,45s20.2,45,45,45s45-20.2,45-45S220.8,361,196,361z M196,421c-8.3,0-15-6.7-15-15
		s6.7-15,15-15s15,6.7,15,15S204.3,421,196,421z"/>
	<path class="st0" d="M106,271c-24.8,0-45,20.2-45,45s20.2,45,45,45s45-20.2,45-45S130.8,271,106,271z M106,331c-8.3,0-15-6.7-15-15
		s6.7-15,15-15s15,6.7,15,15S114.3,331,106,331z"/>
	<path class="st0" d="M286,271c-24.8,0-45,20.2-45,45s20.2,45,45,45s45-20.2,45-45S310.8,271,286,271z M286,331c-8.3,0-15-6.7-15-15
		s6.7-15,15-15s15,6.7,15,15S294.3,331,286,331z"/>
	<path class="st0" d="M181,301h30v30h-30V301z"/>
</g>
</svg>
